<svg xmlns="http://www.w3.org/2000/svg" width="632.312" height="654.091" viewBox="0 0 632.312 654.091"><defs><style>.a,.b,.c,.d,.e,.f,.g,.i,.k,.l,.m,.n,.o,.p,.q,.r,.s,.t,.u,.v,.w{fill-rule:evenodd;}.b{fill:#8b8b8b;}.c{fill:#37a4b9;}.d{fill:#78e8fd;}.e{fill:#e88d95;}.f{fill:#c89457;}.g{fill:#fff;}.h,.j{fill:none;stroke-linecap:round;stroke-linejoin:round;}.h{stroke:#d1d1d1;stroke-width:1.621px;}.i{fill:#d2416e;}.j{stroke:#1a1a1a;stroke-width:1.587px;}.k{fill:#00092f;}.l{fill:#fcbe30;}.m{fill:#4700aa;}.n{fill:#df8905;}.o{fill:#1254ff;}.p{fill:#223ec4;}.q{fill:#616161;}.r{fill:#34c79c;}.s{fill:#31ffc0;}.t{fill:#33c79c;}.u{fill:#da6771;}.v{fill:#494949;}.w{fill:#8e5e25;}</style></defs><g transform="translate(-9.829 -5)"><path class="a" d="M132.565,284.661c-4.8,4.991-11.083,16-18.45,19.2s-3.866,6.424,2.384,6.212,25.53-2.24,30.58-4.976,3.311,2.578,7.7,2.578,4.775-7.355,4.4-13.876a12.38,12.38,0,0,0-3.627-9.054s-18.2-5.075-23.006-.086Z" transform="translate(125.728 348.354)"/><path class="a" d="M276.264,244.95c4.091,4.258,9.455,13.646,15.741,16.377s3.3,5.485-2.03,5.3-19.14-2.057-24.03-2.057H257.32c-3.751,0-4.076-6.277-3.76-11.839a10.576,10.576,0,0,1,3.094-7.723s15.527-4.333,19.623-.072Z" transform="translate(305.885 298.885)"/><path class="a" d="M213.722,245.343c-3.51,4.261-8.106,13.65-13.5,16.382s-2.828,5.481,1.743,5.3,16.409-2.046,20.611-2.046h7.4c3.214,0,3.494-6.273,3.223-11.837a11.361,11.361,0,0,0-2.655-7.725S217.239,241.086,213.722,245.343Z" transform="translate(235.233 299.395)"/><path class="b" d="M86.92,245.6c-3.776,3.934-8.724,12.6-14.523,15.112s-3.045,5.061,1.877,4.892,20.1-1.764,24.08-3.915,2.605,2.03,6.065,2.03,3.76-5.794,3.469-10.928a9.757,9.757,0,0,0-2.858-7.13S90.709,241.678,86.92,245.6Z" transform="translate(74.458 299.902)"/><path class="a" d="M193.4,285.5c3,7.369,7.723,15.7,13.043,19.519,3.789,2.72,5.384,9.022.537,9.27-22.986,1.159-23.4-.58-28.094-1.471s-3.473,1.112-6.967,1.2-5.323-3.4-2.9-13.639S183.305,285.5,183.305,285.5s4.457-13.878,10.1,0Z" transform="translate(198.474 344.415)"/><path class="a" d="M216.124,94.732a31.7,31.7,0,0,1-2.585-16.781,27.711,27.711,0,0,1,5.138-10.79,18.924,18.924,0,0,1-1.008-10.779,21.923,21.923,0,0,1,13.3-15.288,56.66,56.66,0,0,1,27.327-4.15,47.272,47.272,0,0,1,23.168,9.868c5.048,3.976,9.473,7.051,16.492,5.515s7.028-3.9,7.028-3.9A26.592,26.592,0,0,1,303.1,62.185a45.4,45.4,0,0,1-10.17,12.856,21.407,21.407,0,0,1,3.627,8.738,49.954,49.954,0,0,1,.025,10.52s-8.88,15.229-38.294,13.8-40.064-8.909-42.177-13.377Z" transform="translate(255.477 39.781)"/><path class="c" d="M212.008,136.177c-.264,4.77-.307,8.456-.677,12.2s-.787,8-.787,8a169.487,169.487,0,0,0,19.194,1.171c10.111,0,22.526-1.7,32.028-2.107s31.559.323,31.559.323v-24.4s-81.064.052-81.326,4.82Z" transform="translate(251.994 158.64)"/><path class="d" d="M205.544,117.19c3.814-6.807,9.374-13.948,18.044-17.324a92.8,92.8,0,0,1,30.765-6.4,70.512,70.512,0,0,1,21.283,2.824,83.506,83.506,0,0,1,24.6,10.716c7.382,5.057,11.614,9.762,17.692,21.19l13.966,26.261s-9.232,7.578-13.966,10.928l-13.131,9.288-67.026,1.748-16.51-4.285.377-12.856s-7.605-6.478-13.38-11-6.523-24.3-2.707-31.108Z" transform="translate(242.756 111.053)"/><path class="e" d="M219.418,100.39a43.968,43.968,0,0,0,7.894,21.4c5.093,6.5,9.924,10.691,15.272,12.856v8.742s1.8,9,8.932,9.593,12.351-6.766,12.351-6.766l.485-9.563a32.12,32.12,0,0,0,12.164-4.836,42.914,42.914,0,0,0,11.771-15.071,56.731,56.731,0,0,0,5.83-14.816,22.36,22.36,0,0,0,.616-6.349,13.427,13.427,0,0,0,9.649-6.471A11.133,11.133,0,0,0,302.127,75c-3.561-3.2-11.223-2.371-11.223-2.371a79.476,79.476,0,0,0-2.084-8.463,31.732,31.732,0,0,0-3.471-6.728,70.146,70.146,0,0,1-17.09,4.322,100.287,100.287,0,0,1-25.442-1.353A53.3,53.3,0,0,1,226.381,53.7,60.743,60.743,0,0,0,224.2,64.117c-.433,4.766-.737,8.151-.737,8.151a9.166,9.166,0,0,0-8.359,2.192,9.775,9.775,0,0,0-.95,11.925,13.682,13.682,0,0,0,4.982,3.275s-.1,5.767.282,10.727Z" transform="translate(254.524 61.141)"/><path class="e" d="M273.244,154.91c3.259,4.6,4.671,9.266,6.954,9.811s4.141-1.353,8.417-6.329,13-14.25,19.063-20.586l10.463-10.93s-8.853-6.933-8.384-15.134,2.127-11.438,4.872-12.714,3.927.568,3.927.568a14.318,14.318,0,0,1,7.491-4.511c4.694-1.015,9.98,2.231,13.1,7.346s5.936,9.182,4.545,15.159-6.031,9.261-9.114,12.405a8.927,8.927,0,0,1-5.7,3.137,155.18,155.18,0,0,1-6.638,18.222,189.7,189.7,0,0,1-17.029,29.962c-7.005,9.473-14.985,20.157-21,23.547s-13.418,1.038-18.369-4.407a192.2,192.2,0,0,1-15.676-20.376,30.094,30.094,0,0,1-2.921-11.713s22.733-18.044,25.995-13.452Z" transform="translate(298.078 112.868)"/><path class="f" d="M220.571,144.592c-3.848,7.818-7.919,13.93-9.4,19.113a212.984,212.984,0,0,0-5.152,41.14c-.226,16.014-.535,37.4-.717,50.227s-2.116,120.772-2.116,120.772H226s23.588-128.032,26.026-140.406,5.318-27,6.566-33.331,1.1-6.969,1.353-6.859c6.909,3.034,15.964,26.082,28.976,61.99,9.331,25.742,27.517,118.607,27.517,118.607H343.2S334.9,265.5,331.9,244.852s-25.476-87.228-26.164-89.157c-1.579-4.428-4.258-11.934-4.258-11.934s-77.049-6.992-80.893.83Z" transform="translate(242.757 170.603)"/><path class="g" d="M225.4,109.295c-3.737,1.462-14.27,5.76-14.27,5.76l4.894,11.451c2.6,6.09,6.446,12.631,8.07,18.892a105.227,105.227,0,0,0,9.247,20.865c2.932,5.49,5.623,13.208,7.781,16.882s5.354,10.815,5.354,10.815,3.622-1.931,7.24-4.265a59.958,59.958,0,0,1,7.333-3.974s-34.714-76.79-35.637-76.427Z" transform="translate(252.728 130.939)"/><path class="h" d="M215,111.691c3.011,11.092,25.771,59.849,30.106,70.542" transform="translate(257.589 133.949)"/><path class="i" d="M217.455,120.478s2.03,5.88,4.843,13.032,6.674,13.555,8.878,20.913,7.845,17.32,12.089,25.2S253.1,196.9,253.1,196.9l12.989-6.09c6.388-2.993,9.775-5.016,17.006-8.731l15.421-7.917s-1.3-3.446-4.687-11.356c-3.5-8.176-4.982-10.341-6.457-15.08s-9.836-18.637-12.387-24.628-10.47-22.717-10.47-22.717-4,1.78-11.415,5.073c-8.167,3.629-11.756,4.658-19.819,8.158l-15.824,6.863Z" transform="translate(260.671 119.756)"/><path class="e" d="M199.064,147.093a15.789,15.789,0,0,0-2.661,11.593,16.988,16.988,0,0,0,11.138,12.568c7.333,3.018,13.984,1.84,20.606,0s19.7-8.011,28-11.388l32.7-13.294a17.4,17.4,0,0,0,8.167,2,31.042,31.042,0,0,0,10.82-1.949,27.03,27.03,0,0,0,9.682-7.164c2.506-2.707,2.172-5.934,1.759-10.547s-5.582-8.648-5.582-8.648.359-5.188-2.364-7.5a13.943,13.943,0,0,0-7.691-2.314,21.105,21.105,0,0,1-3.965,5.321l-3.859,3.108s.706-8.429-3.956-8.429-5.12,2.535-5.781,5.321-3.094,6.6-4.229,9.953a28.065,28.065,0,0,0-1.128,7.624A104.371,104.371,0,0,1,259.3,137.71a185.855,185.855,0,0,1-21.72.5c-4.482-.034-7.175-.266-7.175-.266L215.387,125.07s-14.052,18.044-16.318,22.023Z" transform="translate(233.986 132.4)"/><path class="a" d="M229.367,63.114a2.361,2.361,0,0,0-2.256.521,3.783,3.783,0,0,0-1.017,1.762,10.1,10.1,0,0,0-.194,6c.248.756.6,1.48,1.337,1.692a4.272,4.272,0,0,0,2.325.09,3.074,3.074,0,0,0,1.071-.916,6.947,6.947,0,0,0,.476-7.123c-.11-.149-.71-1.619-1.748-2.03Z" transform="translate(270.816 72.842)"/><path class="a" d="M240.441,63.2c-.839.068-1.8,1.383-2.255,2.215a6.939,6.939,0,0,0-.53,2.77,6.143,6.143,0,0,0,.3,2.082,5.961,5.961,0,0,0,.564,1.5,4.737,4.737,0,0,0,.731,1.038c1.455,1.556,2.707.257,3.717-1.232a6.6,6.6,0,0,0,.259-6.57,4.1,4.1,0,0,0-2.785-1.791Z" transform="translate(286.029 73.07)"/><path class="j" d="M239.762,69.686c.05.095-.111-.3-.111-.162,0,.426.873,1.482,1.058,1.818,1.085,1.967,4.186,5.639,3.092,8.192-.6,1.389-3.07,2.883-4.267,3.649M226.976,92.09c.176.023.142.332.25.471.268.356.539.71.819,1.058A25.59,25.59,0,0,0,231.7,97.21a13.163,13.163,0,0,0,11.586,1.978" transform="translate(272.624 80.974)"/><path class="k" d="M93.133,61.033c-1.114-5.476-1.527-11.5.947-16.294a20.6,20.6,0,0,1,12.263-10.321,20.383,20.383,0,0,1,15.231,1.644c4.563,2.377,6.613,5.966,8.311,11.007s.641,13.643.641,13.643-36.275,5.8-37.389.32Z" transform="translate(103.482 35.955)"/><path class="l" d="M97.942,53.035c-1.2,3.891-2.172-9.022.489-11.9a11.3,11.3,0,0,1,9.223-3.769,10.6,10.6,0,0,1,8.178,4.349c1.771,2.14,3.081,8.163,1.669,10.732s-19.384,0-19.56.586Z" transform="translate(109.109 40.606)"/><path class="k" d="M94.528,130.132c-6.185-5.077-9.121-15.574-10.56-23.006A86.09,86.09,0,0,1,83.3,78.543c1.669-10.26,7.1-21.1,14.915-26.319s16.2-9.62,24.937-9.62,15.423.311,22.988,4.407,16.391,9.575,21.012,16.93a41.463,41.463,0,0,1,7.218,19.442,90.1,90.1,0,0,1-.925,22.922,49.6,49.6,0,0,1-11.9,23.985C155.338,136.951,100.717,135.212,94.528,130.132Z" transform="translate(91.134 47.212)"/><path class="m" d="M117.589,101.213c-5.077,2.481-12.631,5.109-19.156,11.886s-9.288,12-13.573,19.947-16.889,31.295-16.889,31.295,6.336,5.824,11.873,11.092l10.7,10.179c2.65,2.519,4.854,4.619,4.854,4.619a23.276,23.276,0,0,0,6.04-4.619l10.287-9.223s1.518,6.7,2.274,9.223a8.275,8.275,0,0,0,8.735,4.7c4.529-.354,18.269.816,26.538.451s16.794-.729,25.113-1.094,10.452-1.545,12.989-1.545,7.078-5.954,7.315-10.114.553-9.651.553-9.651l7.626,1.628,11.571-53.8s-6.8-4.881-14.21-10.294-9.586-5.264-15.161-7.141a63.273,63.273,0,0,0-8.95-1.994s-53.387,1.933-58.537,4.443Z" transform="translate(72.997 115.21)"/><path class="n" d="M126.165,147.572c-.55-8.83-3.171-34.243-3.171-34.243l8.228,35.321Z" transform="translate(142.077 136.006)"/><path class="n" d="M90.91,153.23c-1.268-7.49-6.356-38.018-6.356-38.018L86.1,157.543Z" transform="translate(93.816 138.37)"/><path class="e" d="M162.906,111.14c-1.714,6.936-5.616,16.481-10.556,20.863a30.223,30.223,0,0,1-11.325,7.116l-4.9,1.746.492,8.907a53.408,53.408,0,0,1,9.834.571c7.186.866,11.052,1.335,11.052,1.335a29.388,29.388,0,0,1-8.772,9.135c-5.093,2.948-11.356,6.381-19.4,6.381a50.771,50.771,0,0,1-16.156-1.816,29.3,29.3,0,0,1-9.924-4.565,11.589,11.589,0,0,1-4.285-4.691s4.791-2.03,8.345-3.07,5.639-1.91,7.47-2.2l2.443-.386.855-8.875a37.664,37.664,0,0,1-7.894-2.467,22.647,22.647,0,0,1-10.093-9.207,60.464,60.464,0,0,1-6.261-12.378,95.576,95.576,0,0,1-3.5-14.018c-.39-2.481-.9-5.776-.9-5.776a6.976,6.976,0,0,1-6.6-7.443c-.208-7.308,5.492-7.551,5.492-7.551l2.147-5.74a45.109,45.109,0,0,0,12.895,1.4,60.14,60.14,0,0,0,20.994-4.576,88.985,88.985,0,0,0,20.119-11.39,61.374,61.374,0,0,0,10.714-9.405,82.243,82.243,0,0,1,5.733,12.241c1.608,5.025,4.36,13.643,4.36,13.643s7.421-.079,7.684,9.626c.226,8.311-8.16,9.259-8.16,9.259a78.943,78.943,0,0,1-1.89,13.341Z" transform="translate(91.628 60.301)"/><path class="e" d="M110.236,134.447c-2.2,3.9-4.488,9.579-6.164,10.95s-2.553,2.51-6.09-.3a105.2,105.2,0,0,0-16.359-9.671L71.6,130.868a17.534,17.534,0,0,0,.756-5.2c-.158-2.217.194-5.639-7.583-4.888s-13.668.28-20.2.41-12-.045-9.338,2.4a25.022,25.022,0,0,0,10.959,4.831l7.63,1.405a23.633,23.633,0,0,1,6.365,4.87l19.142,19.361c5.835,5.9,16.97,20.5,23.793,24.064a15.77,15.77,0,0,0,19.025-1.874,142.876,142.876,0,0,0,15.229-16.014S112.437,130.545,110.236,134.447Z" transform="translate(31.023 145.226)"/><path class="b" d="M91.985,139.826a6.148,6.148,0,0,0-1.922,5.961c.589,2.481,3.2,4.64,10.15,4.511l23.5-.451c10.075-.2,17.083.647,24.731-.485s14.358-.855,15.6-4.328a8.837,8.837,0,0,0-1.678-8.706c-1.556-1.444-69.167,2.894-70.371,3.516Z" transform="translate(100.543 164.513)"/><path class="o" d="M180.708,141.423a213.156,213.156,0,0,1,10.826,18.448c4.653,9.3,6.936,25.261,8.178,40.49,1.513,18.556,5.961,78.653,6.852,94.5.722,12.919-20.908,69.469-20.908,69.469s-9.105-51.89-12.026-62.344-6.71-37.515-11.848-54.235c-4.917-16-6.239-22.78-9.924-32.3s-4.159-10.738-5.249-13.533c-1.177-3.038-7.933,16.066-17.656,53.468-13.328,51.26-30.932,121.713-30.932,121.713l-21.653-.751s3.275-68.116,10.1-123.544c5.375-43.716,10.42-83.753,11.259-87.138a68.425,68.425,0,0,1,6.112-16.167,19.482,19.482,0,0,1,4.737-6.121s69.584-6.333,72.148-1.951Z" transform="translate(83.54 169.351)"/><path class="p" d="M120.479,172.781c-1.951-5.548-.972-4.123-2.213-6.3-1.029-1.791-7.894-3.584-7.894-3.584s2.68,6.881-1.1,24.749c-3.609,17.072-12.227,61.834-12.227,61.834s20.123-70.9,23.437-76.7Z" transform="translate(109.503 198.237)"/><path class="b" d="M11.406,101.376c2.6,4.91,8.537,18.254,11.44,25.672s8.048,15.412,10.547,20.879,2.932,6.419,3.925,8.6,4.716,2.183,9.552,2.183h70.114c3.916,0,3.753-5.364.582-11.539a300.7,300.7,0,0,1-12.033-28.87l-7.669-21.7c-1.913-5.413-3.706-5.413-9.473-5.413s-25.419,1.782-35.156,2.174L13.183,94.982c-3.724.153-4.4,1.428-1.773,6.385Z" transform="translate(0 108.217)"/><path class="q" d="M58.095,125.658c3.925-.02,10.544-.131,14.435-.074l12.252.171c3.225.047,4.38-.2,7.337-.2a5.33,5.33,0,0,0,5.109-5.321c0-2.623-1.213-2.623-5.255-2.623H60.526C58.4,117.608,54.17,125.678,58.095,125.658Z" transform="translate(58.579 141.378)"/><path class="g" d="M36.208,108.18c-1.886-1.254-3.5-2.842-5.93-.361s-2.386,5.244-.122,8.677,3.742,5.307,5.587,5.239a7.49,7.49,0,0,0,3.769-1.723,15.712,15.712,0,0,1,3.658.187c1,.327,3.413-1.879,4.112-3.9s-.3-3.956-1.324-6.636-.616-5.578-4.466-5.161-3.4,4.937-5.285,3.681Z" transform="translate(23.386 124.87)"/><path class="g" d="M31.979,106.55a5.278,5.278,0,0,1,.244-6.009c1.428-2.255,5.88-2.183,5.88-1.579v3.273c0,1.157-1.5,4.315-2.481,4.315s-2.569,2.481-3.64,0Z" transform="translate(26.777 117.514)"/><path class="a" d="M96.492,68.07s-.553,3.715-.618,4.308a5.7,5.7,0,0,0,.853,3.925,2.989,2.989,0,0,0,4.211.332,7.3,7.3,0,0,0,1.374-6.482,6.564,6.564,0,0,0-.947-3.072,3.4,3.4,0,0,0-4.256-.381,2.777,2.777,0,0,0-.616,1.371Z" transform="translate(107.952 76.741)"/><path class="a" d="M107.981,66.4a6.329,6.329,0,0,0-1.419,4.044c0,.713-.077,1.419-.045,2.134.1,2.274.9,5.167,3.751,4.714a2.668,2.668,0,0,0,.932-.268,3.7,3.7,0,0,0,1.448-2.179,9.308,9.308,0,0,0-.214-6.766,3.455,3.455,0,0,0-4.452-1.674Z" transform="translate(121.381 76.755)"/><path class="j" d="M109.046,73.727c.277.038.111.55.226.8.4.9.744,1.827,1.139,2.736.629,1.464,2.361,5.027.334,6.272a8.05,8.05,0,0,1-2.988.505M98.4,92.567c-.566-.255.677.889.8.992a15.79,15.79,0,0,0,1.895,1.43,12.876,12.876,0,0,0,7.748,1.852" transform="translate(111.021 86.286)"/><path class="a" d="M139.235,52.688c-5.413,13.012-6.827,26.712-2.91,44.695s8.844,28.439,9.372,42.974a68.659,68.659,0,0,1-2.966,24.023s12.559,12.006,26.718,10.15,30.011-10.111,30.011-10.111l22.916,1.286a47.753,47.753,0,0,0,23.588,5.7,71.819,71.819,0,0,0,25.487-6.245s-9.818-13.217-8.3-22.692,12.338-27.442,16.048-42.518,1.335-40.222-8.663-55.611a38.681,38.681,0,0,0-27.411-16.67A36.764,36.764,0,0,0,215.664,6.546c-21.1-4.035-29.134.677-37.376,4.452S160.482,30.17,160.482,30.17a44.9,44.9,0,0,0-21.247,22.512Z" transform="translate(156.014 0)"/><path class="r" d="M144.623,151.473c.426,5.206,1.107,13.5,1.107,13.5s15.017-.1,33.607-.1,25.406-2.278,42.155-3.029l25.6-1.148,6.23-14.638s-56.613-20.365-59.06-21.919-50.072,22.126-49.621,27.33Z" transform="translate(169.232 149.492)"/><path class="s" d="M209.192,79.462c-7.743.28-23.182,1.353-30.293,3.963a62.31,62.31,0,0,0-24.337,15.355c-8.359,8.648-12.579,17.367-16.4,27.9a303.979,303.979,0,0,0-12.667,44.34c-2.407,14.056-3.083,24.625.9,31.947s13.348,13.612,29.8,11.025,19.233-3.688,26.642-6.277,30.32-14.228,30.32-14.228,19.562,7.443,29.269,8.846,27.555.929,41.3-.618,21.274-4.182,27.1-9.459,6.435-14.291,6.963-20.1-1.412-24.81-3.4-37.134a106.544,106.544,0,0,0-9.987-28.681c-2.885-6.243-11.954-13.382-20.814-17.512a99.811,99.811,0,0,0-29.73-8.12,63.722,63.722,0,0,0-14.6-.016s-22.329-1.513-30.077-1.229Z" transform="translate(142.771 93.436)"/><path class="e" d="M149.623,37.46a145,145,0,0,0-2.84,19.348S140.33,59.4,140.678,68.55a13.567,13.567,0,0,0,7.757,12.125,122.9,122.9,0,0,0,2.9,16.767c2.01,7.554,7.29,20.484,13.77,26.389a53.038,53.038,0,0,0,15.161,10.375c4.725,2.172,6.568,3.025,6.568,3.025s-.061,1.177-.341,6.53c-.25,4.8-.413,7.872-.413,7.872a65.259,65.259,0,0,0,5.506,12.25c3.282,5.325,9.473,14.794,9.473,14.794l9.473-12.328a68.116,68.116,0,0,0,6.609-13.594V136.386a40.276,40.276,0,0,0,8.072-5.018A64.732,64.732,0,0,0,240,114.762c3.692-6.117,5.724-16.675,5.864-23.116s.244-10.932.244-10.932,9.419-3.248,10.7-12.155-6.388-14.6-6.388-14.6a69.486,69.486,0,0,1-15.594,3.288A46.6,46.6,0,0,1,214.5,51.309a41.134,41.134,0,0,1-9.41-8.438,31.9,31.9,0,0,1-11.408,3.25,50.556,50.556,0,0,1-17.933-3.99A36.67,36.67,0,0,1,161.6,30.513l-5.515-8.539a60.285,60.285,0,0,0-6.448,15.486Z" transform="translate(164.261 21.311)"/><path class="t" d="M204.177,138.155c-1.353-11.329-13.409-41.58-13.409-41.58l3.288,39.5s11.469,13.409,10.12,2.077Z" transform="translate(227.166 114.971)"/><path class="t" d="M165.228,151.187c9.8-5.386,47.207-33.465,47.207-33.465s6.766-4.813,10.646-4.777c4.353.045,15.468,5.034,15.468,5.034l.706,4.132s-8.914-1.186-22.46,4.06c-21.52,8.345-46.688,27.066-46.688,27.066s-14.661,3.336-4.87-2.052Z" transform="translate(190.881 135.523)"/><path class="e" d="M181.013,113.373c4.6-2.226,7.741-8.208,14.018-9.022s10.928,3.961,15.044,8.853,6.649,15.852,6.649,15.852-20.685-1.665-28.327-.42l-7.384-15.261Z" transform="translate(214.919 124.619)"/><path class="t" d="M143.978,135.009c3-13.364,7.811-34.867,8.422-37.468s2.551,40.089,2.551,40.089-13.984,10.743-10.973-2.621Z" transform="translate(167.889 116.04)"/><path class="e" d="M177.72,121.449c-6.09-5.35-14.46-11.07-20.114-10.339s-4.689,4.188-7.062,4.7a52.279,52.279,0,0,1-6.09,0c-2.145.266-1.387.6-5.659,4.709s-7.917,6.938-7.328,10.54,1.182,11.011,5.936,9.351,12.511-3.309,14.358-7.15l2.932-6.09s3.634-.986,10.087-2.3a65.42,65.42,0,0,0,12.94-3.428Z" transform="translate(152.636 133.141)"/><path class="b" d="M179.61,144.786a124.314,124.314,0,0,0-11.277,22.1c-2.005,4.915-12.313,57.763-22.981,114.066C132.5,348.846,119.1,464.264,119.1,464.264l27.765.722s49.738-139.24,63.287-178.571c6.541-18.966,18-57.431,18-57.431s-.521,5.539-.521,45.159,3.383,79.515,3.383,96.722,2,97.692,2,97.692l25.737-1.319s16.9-88.866,22-115.706c5.51-28.96,11.244-53.428,15.748-82.8a421.487,421.487,0,0,0,4.511-68.761,104.84,104.84,0,0,0-9.34-42.317,57.3,57.3,0,0,0-12.538-17.342S181.466,144.822,179.61,144.786Z" transform="translate(137.188 169.881)"/><path class="a" d="M155.654,42.681s-.417,2.334-.417,2.481V46.4c0,1.128-.126,2.255-.068,3.383.174,3.257,3.273,8.278,7.116,5.864a5,5,0,0,0,2-3.663c.661-3.016,1.11-7.619-.62-10.434-1.94-3.146-6.827-1.859-8.014,1.107Z" transform="translate(182.452 43.603)"/><path class="j" d="M172.144,48.159c-.02,1.376,1.579,2.932,2.429,4.143.429.611,1.128,1.707,1.559,2.368.309.48.729,1.105,1,1.622,1.655,3.158-1.489,4.635-3.74,6.356m-10.15,14.938c.189-.1,1.43.932,1.768,1.2a13.287,13.287,0,0,0,6.48,3.185c4.836.715,7.691-1.985,10.7-4.723" transform="translate(192.604 54.186)"/><path class="a" d="M171.506,43.733a22.8,22.8,0,0,0,.523,9.054A6.973,6.973,0,0,0,172.724,55a3.582,3.582,0,0,0,1.033.9c3.347,2.129,5.661-2.168,6.151-5.251.586-3.733.555-6.9-1.845-9.739a3.846,3.846,0,0,0-5.934.855l-.622,1.971Z" transform="translate(202.692 43.789)"/><path class="u" d="M161.722,73.111a89.515,89.515,0,0,0,16.339,2.14,20.764,20.764,0,0,0,7.2-1.2L160.8,87.451s.663-10.323.92-14.34Z" transform="translate(189.542 85.513)"/><path class="u" d="M98.817,92.293a36.99,36.99,0,0,0,12.843.212c-3.034,3.034-13.508,6.7-13.508,6.7s.386-4.015.677-6.913Z" transform="translate(110.888 109.595)"/><path class="u" d="M225.968,89.6a55.39,55.39,0,0,0,15.051,1.782,102.143,102.143,0,0,1-15.148,6.938S225.871,92.316,225.968,89.6Z" transform="translate(271.237 106.214)"/><path class="v" d="M187.81,199.634c.379-10.621,1.863-25.036,1.619-29.19s-11.1-6.748-11.1-6.748.37,1.157,1.579,4.883-28.69,141.455-28.69,141.455,12.18-33.562,22.282-64.056c7.919-23.886,14.318-46.337,14.318-46.337Z" transform="translate(177.517 199.239)"/><path class="w" d="M228.347,175.218c1.534-7.781,2.431-12.784,6.133-14.579l7.831-3.8s-1.958.816-4.5,5.639,4.856,29.651,8.857,46.174c-10.118-23.044-13.758-29.08-18.324-33.435Z" transform="translate(274.346 190.633)"/></g></svg>