<svg xmlns="http://www.w3.org/2000/svg" width="16" height="16.012" viewBox="0 0 16 16.012"><defs><style>.a{fill:#d32f2f;}</style></defs><g transform="translate(-115 362)"><path class="a" d="M192.794-360.2c-.988.988-1.794,1.823-1.794,1.852s.812.853,1.8,1.823l1.806,1.759,1.806-1.806,1.806-1.806-1.812-1.812L194.594-362Z" transform="translate(-71.559)"/><path class="a" d="M116.794-285.2,115-283.406l1.812,1.812,1.812,1.812,1.812-1.812,1.812-1.812-1.794-1.794c-.993-.993-1.812-1.8-1.829-1.8S117.787-286.194,116.794-285.2Z" transform="translate(0 -70.617)"/><path class="a" d="M266.794-285.2,265-283.406l1.829,1.829,1.823,1.823,1.794-1.829,1.788-1.835-1.788-1.788c-.988-.988-1.806-1.794-1.823-1.794S267.787-286.194,266.794-285.2Z" transform="translate(-141.234 -70.617)"/><path class="a" d="M192.312-210.188l-1.812,1.812,1.812,1.812,1.812,1.812,1.812-1.812,1.812-1.812-1.812-1.812L194.123-212Z" transform="translate(-71.088 -141.234)"/></g></svg>